<svg width="161" height="27" viewBox="0 0 211 35" fill="none" xmlns="http://www.w3.org/2000/svg">
<path d="M0 12C0 5.37258 5.37258 0 12 0H211V23C211 29.6274 205.627 35 199 35H12C5.37258 35 0 29.6274 0 23V12Z" fill="#F7FAFF"/>
<path d="M0 12C0 5.37258 5.37258 0 12 0H23C29.6274 0 35 5.37258 35 12V35H12C5.37258 35 0 29.6274 0 23V12Z" fill="#1C64F2"/>
<path d="M27 17C27.25 17 27.5 17.25 27.5 17.5C27.5 17.7812 27.25 18 27 18H26.5V20.5C26.5 21.3438 25.8125 22 25 22H24C23.8125 22 23.6562 21.9688 23.5 21.9375V22.5C23.5 23.3438 22.8125 24 22 24H21C20.1562 24 19.5 23.3438 19.5 22.5V18H15.5V22.5C15.5 23.3438 14.8125 24 14 24H13C12.1562 24 11.5 23.3438 11.5 22.5V21.9375C11.3438 21.9688 11.1562 22 11 22H10C9.15625 22 8.5 21.3438 8.5 20.5V18H8C7.71875 18 7.5 17.7812 7.5 17.5C7.5 17.25 7.71875 17 8 17H8.5V14.5C8.5 13.6875 9.15625 13 10 13H11C11.1562 13 11.3438 13.0625 11.5 13.0938V12.5C11.5 11.6875 12.1562 11 13 11H14C14.8125 11 15.5 11.6875 15.5 12.5V17H19.5V12.5C19.5 11.6875 20.1562 11 21 11H22C22.8125 11 23.5 11.6875 23.5 12.5V13.0938C23.6562 13.0625 23.8125 13 24 13H25C25.8125 13 26.5 13.6875 26.5 14.5V17H27ZM11.5 20.5V14.5C11.5 14.25 11.25 14 11 14H10C9.71875 14 9.5 14.25 9.5 14.5V20.5C9.5 20.7812 9.71875 21 10 21H11C11.25 21 11.5 20.7812 11.5 20.5ZM14.5 22.5V12.5C14.5 12.25 14.25 12 14 12H13C12.7188 12 12.5 12.25 12.5 12.5V22.5C12.5 22.7812 12.7188 23 13 23H14C14.25 23 14.5 22.7812 14.5 22.5ZM22.5 22.5V12.5C22.5 12.25 22.25 12 22 12H21C20.7188 12 20.5 12.25 20.5 12.5V22.5C20.5 22.7812 20.7188 23 21 23H22C22.25 23 22.5 22.7812 22.5 22.5ZM25.5 20.5V14.5C25.5 14.25 25.25 14 25 14H24C23.7188 14 23.5 14.25 23.5 14.5V20.5C23.5 20.7812 23.7188 21 24 21H25C25.25 21 25.5 20.7812 25.5 20.5Z" fill="white"/>
<path d="M47.648 22V13.252H54.968V15.4H50.396V16.888H54.488V18.916H50.396V22H47.648ZM59.4043 22V13.252H62.1523V22H59.4043ZM69.1832 22V15.424H66.5312V13.252H74.6432V15.424H71.9192V22H69.1832ZM79.0261 22V13.252H82.3381L85.7221 18.412H85.8181L85.7461 15.952V13.252H88.4701V22H85.2061L81.8221 16.912H81.7141L81.7981 19.288V22H79.0261ZM93.3605 22V13.252H101.017V15.4H96.1085V16.612H100.417V18.616H96.1085V19.852H101.053V22H93.3605ZM109.569 22.12C106.569 22.12 105.165 20.896 105.165 19.18H108.021C108.033 19.804 108.573 20.26 109.677 20.26C110.565 20.26 111.057 19.996 111.057 19.516C111.057 18.928 110.709 18.88 109.281 18.712C106.569 18.4 105.381 17.716 105.381 16.012C105.381 14.176 106.941 13.144 109.557 13.144C111.861 13.144 113.409 14.08 113.577 15.832H110.805C110.709 15.22 110.193 14.98 109.449 14.98C108.645 14.98 108.201 15.256 108.201 15.688C108.201 16.192 108.465 16.288 110.013 16.456C112.809 16.768 113.889 17.368 113.889 19.288C113.889 21.064 112.341 22.12 109.569 22.12ZM122.274 22.12C119.274 22.12 117.87 20.896 117.87 19.18H120.726C120.738 19.804 121.278 20.26 122.382 20.26C123.27 20.26 123.762 19.996 123.762 19.516C123.762 18.928 123.414 18.88 121.986 18.712C119.274 18.4 118.086 17.716 118.086 16.012C118.086 14.176 119.646 13.144 122.262 13.144C124.566 13.144 126.114 14.08 126.282 15.832H123.51C123.414 15.22 122.898 14.98 122.154 14.98C121.35 14.98 120.906 15.256 120.906 15.688C120.906 16.192 121.17 16.288 122.718 16.456C125.514 16.768 126.594 17.368 126.594 19.288C126.594 21.064 125.046 22.12 122.274 22.12ZM137.189 22V13.252H142.061C143.957 13.252 144.845 14.116 144.845 15.496C144.845 16.456 144.341 17.224 143.369 17.44V17.5C144.497 17.692 145.097 18.496 145.097 19.564C145.097 21.124 143.933 22 142.001 22H137.189ZM138.617 17.02H141.845C142.925 17.02 143.429 16.48 143.429 15.676C143.429 14.776 142.757 14.296 141.725 14.296H138.617V17.02ZM138.617 20.956H141.785C143.069 20.956 143.645 20.344 143.645 19.444C143.645 18.532 143.033 18.028 141.905 18.028H138.617V20.956ZM153.667 22.108C151.207 22.108 149.587 21.04 149.587 18.34V13.252H151.003V18.316C151.003 19.96 151.735 20.896 153.667 20.896C155.491 20.896 156.343 20.08 156.343 18.316V13.252H157.759V18.34C157.759 20.86 156.343 22.108 153.667 22.108ZM162.764 22V13.252H166.76C169.688 13.252 171.296 14.992 171.296 17.632C171.296 20.392 169.544 22 166.76 22H162.764ZM164.192 20.848H166.52C168.728 20.848 169.844 19.6 169.844 17.608C169.844 15.448 168.524 14.404 166.52 14.404H164.192V20.848ZM176.056 22V13.252H180.052C182.98 13.252 184.588 14.992 184.588 17.632C184.588 20.392 182.836 22 180.052 22H176.056ZM177.484 20.848H179.812C182.02 20.848 183.136 19.6 183.136 17.608C183.136 15.448 181.816 14.404 179.812 14.404H177.484V20.848ZM191.575 22V18.58L187.831 13.252H189.475L192.271 17.356H192.343L195.151 13.252H196.783L193.015 18.58V22H191.575Z" fill="#1C64F2"/>
</svg>
